<?xml version="1.0" encoding="UTF-8" standalone="no"?>
<!DOCTYPE svg PUBLIC "-//W3C//DTD SVG 1.1//EN" "http://www.w3.org/Graphics/SVG/1.1/DTD/svg11.dtd">
<svg width="100%" height="100%" viewBox="0 0 433 101" version="1.1" xmlns="http://www.w3.org/2000/svg" xmlns:xlink="http://www.w3.org/1999/xlink" xml:space="preserve" xmlns:serif="http://www.serif.com/" style="fill-rule:evenodd;clip-rule:evenodd;stroke-linejoin:round;stroke-miterlimit:2;">
    <g transform="matrix(1,0,0,1,-26921,-30868)">
        <g transform="matrix(1,0,0,1,-0.190807,-0.867232)">
            <g id="co-logo-principal" transform="matrix(1,0,0,1,26808.7,30747.1)">
                <g transform="matrix(1,0,0,1,3.54026,0)">
                    <path d="M175.434,212.222C172.38,214.805 168.935,216.935 165.099,218.613C159.723,220.965 154.155,222.141 148.395,222.141C141.003,222.141 134.331,220.437 128.379,217.029C122.427,213.621 117.723,208.965 114.267,203.061C110.811,197.157 109.083,190.557 109.083,183.261C109.083,175.869 110.811,169.245 114.267,163.389C117.723,157.533 122.427,152.877 128.379,149.421C134.331,145.965 141.003,144.237 148.395,144.237C154.347,144.237 160.035,145.389 165.459,147.693C169.185,149.276 172.561,151.335 175.585,153.87C174.086,155.689 172.722,157.635 171.491,159.708C169.554,162.973 168.066,166.416 167.029,170.038C164.359,167.171 161.58,165.027 158.691,163.605C155.667,162.117 152.379,161.373 148.827,161.373C144.987,161.373 141.555,162.333 138.531,164.253C135.507,166.173 133.107,168.765 131.331,172.029C129.555,175.293 128.667,179.037 128.667,183.261C128.667,187.293 129.555,190.965 131.331,194.277C133.107,197.589 135.579,200.181 138.747,202.053C141.915,203.925 145.419,204.861 149.259,204.861C152.619,204.861 155.763,204.165 158.691,202.773C161.603,201.389 164.397,199.315 167.073,196.553C168.123,200.137 169.625,203.538 171.577,206.757C172.749,208.688 174.034,210.51 175.434,212.222Z" style="fill:rgb(40,39,36);"/>
                </g>
                <g transform="matrix(1,0,0,1,-4.4059,0)">
                    <path d="M223.563,222.141C216.075,222.141 209.307,220.413 203.259,216.957C197.211,213.501 192.411,208.845 188.859,202.989C185.307,197.133 183.531,190.557 183.531,183.261C183.531,175.965 185.283,169.365 188.787,163.461C192.291,157.557 197.091,152.877 203.187,149.421C209.283,145.965 216.075,144.237 223.563,144.237C231.051,144.237 237.843,145.965 243.939,149.421C250.035,152.877 254.835,157.557 258.339,163.461C261.843,169.365 263.595,175.965 263.595,183.261C263.595,190.557 261.843,197.133 258.339,202.989C254.835,208.845 250.059,213.501 244.011,216.957C237.963,220.413 231.147,222.141 223.563,222.141ZM223.563,205.005C227.499,205.005 231.027,204.045 234.147,202.125C237.267,200.205 239.763,197.589 241.635,194.277C243.507,190.965 244.443,187.293 244.443,183.261C244.443,179.133 243.507,175.437 241.635,172.173C239.763,168.909 237.267,166.293 234.147,164.325C231.027,162.357 227.499,161.373 223.563,161.373C219.723,161.373 216.219,162.357 213.051,164.325C209.883,166.293 207.387,168.909 205.563,172.173C203.739,175.437 202.827,179.133 202.827,183.261C202.827,187.293 203.739,190.965 205.563,194.277C207.387,197.589 209.883,200.205 213.051,202.125C216.219,204.045 219.723,205.005 223.563,205.005Z" style="fill:rgb(40,39,36);fill-rule:nonzero;"/>
                </g>
                <g transform="matrix(1,0,0,1,-7.4059,0)">
                    <path d="M275.691,220.701L275.691,145.677L295.419,145.677L295.419,151.869C301.083,146.781 308.091,144.237 316.443,144.237C322.299,144.237 327.459,145.509 331.923,148.053C336.387,150.597 339.867,154.101 342.363,158.565C344.859,163.029 346.107,168.237 346.107,174.189L346.107,220.701L326.379,220.701L326.379,177.069C326.379,172.173 324.987,168.309 322.203,165.477C319.419,162.645 315.627,161.229 310.827,161.229C307.467,161.229 304.491,161.877 301.899,163.173C299.307,164.469 297.147,166.317 295.419,168.717L295.419,220.701L275.691,220.701Z" style="fill:rgb(40,39,36);fill-rule:nonzero;"/>
                </g>
                <g transform="matrix(1,0,0,1,-8.4059,0)">
                    <path d="M394.491,221.853C386.139,221.853 379.827,219.957 375.555,216.165C371.283,212.373 369.147,206.829 369.147,199.533L369.147,162.093L353.739,162.093L353.739,145.677L369.147,145.677L369.147,126.525L388.875,122.061L388.875,145.677L410.331,145.677L410.331,162.093L388.875,162.093L388.875,195.501C388.875,198.957 389.643,201.429 391.179,202.917C392.715,204.405 395.403,205.149 399.243,205.149C401.163,205.149 402.915,205.029 404.499,204.789C406.083,204.549 407.835,204.093 409.755,203.421L409.755,219.693C407.739,220.365 405.219,220.893 402.195,221.277C399.171,221.661 396.603,221.853 394.491,221.853Z" style="fill:rgb(40,39,36);fill-rule:nonzero;"/>
                </g>
                <g transform="matrix(1,0,0,1,-6.4059,0)">
                    <path d="M419.979,220.701L419.979,145.677L439.707,145.677L439.707,154.029C442.107,150.765 444.987,148.269 448.347,146.541C451.707,144.813 455.499,143.949 459.723,143.949C463.371,144.045 466.107,144.621 467.931,145.677L467.931,162.957C466.491,162.285 464.907,161.781 463.179,161.445C461.451,161.109 459.675,160.941 457.851,160.941C454.011,160.941 450.507,161.901 447.339,163.821C444.171,165.741 441.627,168.477 439.707,172.029L439.707,220.701L419.979,220.701Z" style="fill:rgb(40,39,36);fill-rule:nonzero;"/>
                </g>
                <g transform="matrix(1,0,0,1,-7.4059,0)">
                    <path d="M512.283,222.141C504.795,222.141 498.027,220.413 491.979,216.957C485.931,213.501 481.131,208.845 477.579,202.989C474.027,197.133 472.251,190.557 472.251,183.261C472.251,175.965 474.003,169.365 477.507,163.461C481.011,157.557 485.811,152.877 491.907,149.421C498.003,145.965 504.795,144.237 512.283,144.237C519.771,144.237 526.563,145.965 532.659,149.421C538.755,152.877 543.555,157.557 547.059,163.461C550.563,169.365 552.315,175.965 552.315,183.261C552.315,190.557 550.563,197.133 547.059,202.989C543.555,208.845 538.779,213.501 532.731,216.957C526.683,220.413 519.867,222.141 512.283,222.141ZM512.283,205.005C516.219,205.005 519.747,204.045 522.867,202.125C525.987,200.205 528.483,197.589 530.355,194.277C532.227,190.965 533.163,187.293 533.163,183.261C533.163,179.133 532.227,175.437 530.355,172.173C528.483,168.909 525.987,166.293 522.867,164.325C519.747,162.357 516.219,161.373 512.283,161.373C508.443,161.373 504.939,162.357 501.771,164.325C498.603,166.293 496.107,168.909 494.283,172.173C492.459,175.437 491.547,179.133 491.547,183.261C491.547,187.293 492.459,190.965 494.283,194.277C496.107,197.589 498.603,200.205 501.771,202.125C504.939,204.045 508.443,205.005 512.283,205.005Z" style="fill:rgb(40,39,36);fill-rule:nonzero;"/>
                </g>
            </g>
        </g>
    </g>
</svg>
